<?xml version="1.0" standalone="no"?>
<!DOCTYPE svg PUBLIC "-//W3C//DTD SVG 20010904//EN"
 "http://www.w3.org/TR/2001/REC-SVG-20010904/DTD/svg10.dtd">
<svg version="1.0" xmlns="http://www.w3.org/2000/svg"
 width="256.000000pt" height="256.000000pt" viewBox="0 0 256.000000 256.000000"
 preserveAspectRatio="xMidYMid meet">

<g transform="translate(0.000000,256.000000) scale(0.100000,-0.100000)"
fill="#000000" stroke="none">
<path d="M1150 2080 c-348 -27 -582 -160 -689 -390 -36 -78 -61 -169 -61 -226
l0 -41 -45 -5 c-55 -7 -89 -28 -111 -70 -34 -66 -12 -151 49 -188 31 -19 57
-20 980 -20 1051 0 995 -4 1037 65 57 92 -11 215 -119 215 -30 0 -31 2 -31 43
0 96 -59 250 -132 344 -46 61 -137 132 -220 174 -155 78 -418 118 -658 99z
m255 -120 c293 -26 491 -133 580 -314 40 -81 68 -194 52 -214 -7 -9 -167 -12
-761 -10 l-751 3 -3 33 c-9 88 63 236 156 324 107 99 261 159 457 177 129 12
148 12 270 1z"/>
<path d="M856 1834 c-47 -47 14 -126 70 -90 31 21 39 52 20 81 -19 29 -66 34
-90 9z"/>
<path d="M1672 1737 c-26 -28 -27 -45 -6 -75 19 -27 64 -29 87 -4 24 26 21 68
-5 86 -31 22 -51 20 -76 -7z"/>
<path d="M684 1615 c-19 -29 -11 -60 20 -81 56 -36 117 43 70 90 -24 25 -71
20 -90 -9z"/>
<path d="M1024 1615 c-19 -29 -11 -60 20 -81 56 -36 117 43 70 90 -24 25 -71
20 -90 -9z"/>
<path d="M304 1076 c-64 -28 -96 -103 -74 -170 15 -48 68 -91 119 -100 l41 -6
0 -75 c0 -115 36 -180 125 -228 40 -22 41 -22 760 -22 683 0 722 1 755 19 92
48 130 114 138 233 l5 83 29 0 c135 0 178 205 55 263 -66 32 -129 23 -380 -54
-339 -104 -233 -107 -1205 37 -252 37 -320 41 -368 20z m1746 -333 c0 -86 -22
-127 -77 -142 -52 -15 -1334 -15 -1386 0 -55 15 -77 56 -77 142 l0 67 770 0
770 0 0 -67z"/>
</g>
</svg>
